Coordinates
version=1
nRows=8
nColumns=63
inDegrees=yes

Units are S.I. units (second, meters, Newtons, ...)
If the header above contains a line with 'inDegrees', this indicates whether rotational values are in degrees (yes) or radians (no).

endheader
time	pelvis_tilt	pelvis_list	pelvis_rotation	pelvis_tx	pelvis_ty	pelvis_tz	hip_flexion_r	hip_adduction_r	hip_rotation_r	knee_angle_r	knee_angle_r_beta	ankle_angle_r	subtalar_angle_r	mtp_angle_r	hip_flexion_l	hip_adduction_l	hip_rotation_l	knee_angle_l	knee_angle_l_beta	ankle_angle_l	subtalar_angle_l	mtp_angle_l	L5_S1_Flex_Ext	L5_S1_Lat_Bending	L5_S1_axial_rotation	L4_L5_Flex_Ext	L4_L5_Lat_Bending	L4_L5_axial_rotation	L3_L4_Flex_Ext	L3_L4_Lat_Bending	L3_L4_axial_rotation	L2_L3_Flex_Ext	L2_L3_Lat_Bending	L2_L3_axial_rotation	L1_L2_Flex_Ext	L1_L2_Lat_Bending	L1_L2_axial_rotation	L1_T12_Flex_Ext	L1_T12_Lat_Bending	L1_T12_axial_rotation	Abs_r3	Abs_r2	Abs_r1	Abs_t1	Abs_t2	neck_flexion	neck_bending	neck_rotation	arm_flex_r	arm_add_r	arm_rot_r	elbow_flex_r	pro_sup_r	wrist_flex_r	wrist_dev_r	arm_flex_l	arm_add_l	arm_rot_l	elbow_flex_l	pro_sup_l	wrist_flex_l	wrist_dev_l
2.750000	-1.310021	-11.873203	105.354562	0.221800	0.798407	0.666352	9.810487	-4.257897	-27.863187	16.353621	0.285425	31.947026	12.600347	0.000000	11.217672	1.440365	15.667533	12.226296	0.213389	19.061326	-4.165796	0.000000	0.016498	-0.207948	3.989607	0.030639	-0.276570	4.238958	0.027105	-0.505604	4.238958	0.018856	-0.505604	3.490907	0.015320	-0.424047	3.241556	0.009427	-0.322111	2.992206	0.117847	-2.352345	22.189000	0.000000	0.000000	5.398997	0.734694	-18.534270	48.858302	-21.011390	53.767187	93.297364	33.806078	-5.290916	7.388142	6.647048	-18.360494	35.983388	57.509771	87.671386	-1.936933	1.748983
2.766667	-1.699969	-11.715714	103.639496	0.222631	0.798453	0.663784	9.371848	-4.354816	-27.116502	16.010101	0.279429	31.745751	13.556586	0.000000	10.454766	1.506818	14.819203	11.758802	0.205230	18.951007	-4.934433	0.000000	0.023576	-0.250157	4.117302	0.043783	-0.332709	4.374634	0.038733	-0.608233	4.374634	0.026945	-0.608233	3.602640	0.021893	-0.510121	3.345308	0.013471	-0.387494	3.087977	0.168401	-2.829830	22.899200	0.000000	0.000000	5.842765	1.172701	-18.385961	45.254604	-23.285726	52.532257	94.063883	40.881434	-4.275082	8.851646	5.592819	-18.638217	34.132505	61.866489	87.514528	-1.480211	0.206171
2.783333	-2.040628	-11.556577	101.930179	0.223421	0.798414	0.661327	8.972173	-4.426561	-26.296209	15.703658	0.274081	31.523388	14.391882	0.000000	9.736692	1.556467	13.974493	11.358407	0.198242	18.833277	-5.715619	0.000000	0.030517	-0.287363	4.204201	0.056672	-0.382193	4.466964	0.050136	-0.698695	4.466964	0.034877	-0.698695	3.678676	0.028338	-0.585991	3.415914	0.017437	-0.445126	3.153151	0.217976	-3.250712	23.382506	0.000000	0.000000	6.430383	1.615883	-18.100721	41.785307	-25.244841	51.760412	94.469569	46.445486	-2.633787	9.675528	4.328286	-18.817411	32.110487	66.309778	87.362146	-1.058428	-1.831509
2.800000	-2.333064	-11.408837	100.243717	0.224157	0.798322	0.659021	8.622262	-4.478198	-25.403780	15.423027	0.269183	31.284110	15.110250	0.000000	9.081691	1.598317	13.145975	11.030007	0.192510	18.675128	-6.523957	0.000000	0.038437	-0.319214	4.246360	0.071382	-0.424554	4.511758	0.063148	-0.776137	4.511758	0.043930	-0.776137	3.715565	0.035693	-0.650941	3.450168	0.021963	-0.494462	3.184770	0.274553	-3.611011	23.616981	0.000000	0.000000	7.136328	1.999432	-17.671093	38.531186	-26.872981	51.456326	94.596077	51.000991	-0.744286	10.028514	2.899414	-18.911909	30.030248	70.714947	87.197638	-0.608950	-4.144706
2.816667	-2.552848	-11.242128	98.608004	0.224800	0.798249	0.656897	8.288291	-4.481275	-24.474488	15.153018	0.264470	31.021379	15.721414	0.000000	8.471193	1.611046	12.375327	10.783729	0.188212	18.472130	-7.381679	0.000000	0.043872	-0.340383	4.239416	0.081474	-0.452710	4.504380	0.072077	-0.827608	4.504380	0.050141	-0.827608	3.709489	0.040739	-0.694110	3.444526	0.025068	-0.527254	3.179562	0.313372	-3.850484	23.578361	0.000000	0.000000	7.937821	2.294064	-16.994251	35.534397	-28.180332	51.601206	94.512405	54.285155	1.397562	9.919684	1.387431	-18.928507	28.018117	74.927666	87.012149	-0.181307	-6.534944
2.833333	-2.699606	-11.060197	97.039508	0.225360	0.798228	0.655005	7.978646	-4.435150	-23.513532	14.892481	0.259923	30.737510	16.218931	0.000000	7.913248	1.592779	11.657709	10.615603	0.185277	18.218196	-8.268589	0.000000	0.047313	-0.350297	4.178155	0.087865	-0.465895	4.439290	0.077730	-0.851713	4.439290	0.054074	-0.851713	3.655886	0.043935	-0.714326	3.394751	0.027035	-0.542610	3.133617	0.337951	-3.962632	23.237647	0.000000	0.000000	8.795747	2.464409	-16.041582	32.904225	-29.192119	52.229159	94.286173	56.505700	3.572547	9.328879	-0.109520	-18.908040	26.245579	78.845429	86.774272	0.197156	-8.704928
2.850000	-2.776511	-10.866034	95.569131	0.225815	0.798274	0.653355	7.689609	-4.348033	-22.571521	14.637719	0.255476	30.454861	16.647330	0.000000	7.408484	1.548902	11.020389	10.516614	0.183550	17.908498	-9.192982	0.000000	0.049358	-0.349106	4.052436	0.091663	-0.464310	4.305714	0.081090	-0.848815	4.305714	0.056411	-0.848815	3.545882	0.045834	-0.711896	3.292605	0.028203	-0.540765	3.039327	0.352559	-3.949153	22.538436	0.000000	0.000000	9.667466	2.509932	-14.765776	30.765127	-29.931531	53.396136	93.985863	57.874768	5.501001	8.269778	-1.536134	-18.889870	24.738998	82.424516	86.499977	0.532272	-10.383612
2.866667	-2.783430	-10.648402	94.229557	0.226134	0.798415	0.651991	7.408686	-4.225110	-21.708402	14.395331	0.251246	30.190011	17.043775	0.000000	6.953767	1.477523	10.469428	10.495927	0.183188	17.573510	-10.108918	0.000000	0.047396	-0.336226	3.850742	0.088019	-0.447181	4.091413	0.077867	-0.817500	4.091413	0.054169	-0.817500	3.369399	0.044012	-0.685632	3.128728	0.027082	-0.520814	2.888056	0.338546	-3.803455	21.416670	0.000000	0.000000	10.532391	2.457998	-13.081427	29.262284	-30.413308	55.169161	93.662890	58.966857	6.826037	6.882890	-2.858866	-18.871785	23.433088	85.644318	86.242259	1.067183	-11.266345
